# xmcd
# 
# Track frame offsets:
#     187
#     17995
#     30575
#     45607
#     64595
#     84200
#     121657
#     133980
#     144312
#     157950
# 
# Disc length: 2291
# 
# Revision: 10
# Processed by: cddbd v1.5.2PL0 Copyright (c) Steve Scherf et al.
# Submitted via: fre:ac v1.1beta1
# 
DISCID=7808f10a
DTITLE=Various Artist - Back To The Future Soundtrack
DYEAR=1985
DGENRE=Soundtrack
TTITLE0=Huey Lewis and the News - The Power Of Love
TTITLE1=Lindsay Buckingham - Time Bomb Town
TTITLE2=Outatime Orchestra - Back To The Future
TTITLE3=Eric Clapton - Heaven Is One Step Away
TTITLE4=Huey Lewis and the News - Back In Time
TTITLE5=Outatime Orchestra - Back To The Future Overture
TTITLE6=Etta James - The Wallflower (Dance With Me Henry)
TTITLE7=Marvin Berry and the Starlighters - Night Train
TTITLE8=Marvin Berry and the Starlighters - Earth Angel (Will You Be Mine)
TTITLE9=Marty McFly with the Starlighters - Johnny B. Goode
EXTD=
EXTT0=
EXTT1=
EXTT2=
EXTT3=
EXTT4=
EXTT5=
EXTT6=
EXTT7=
EXTT8=
EXTT9=
PLAYORDER=
